<svg xmlns="http://www.w3.org/2000/svg" viewBox="0 0 300 300" width="300" height="300"><rect width="300" height="300" rx="18" fill="#FDE8D8"/>
        <path d="M95 165 q0 -14 14 -18 l45 -16 q10 -4 18 2 l20 15
                 q8 6 16 6 h12 q8 0 8 8 v10 q0 8 -8 8 h-115 q-10 0 -10 -9 z"
              fill="#D97A2E"/>
        <path d="M95 165 q0 -14 14 -18 l20 -7 q4 10 -2 16 l-10 9 z" fill="#FDE8D8"/>
    <rect x="20" y="240" width="260" height="46" rx="23.0" fill="#ffffff" fill-opacity="0.9"/><text x="150" y="260" font-family="Helvetica, Arial, sans-serif" font-size="13" font-weight="600" fill="#2B2B2B" text-anchor="middle">UrbanFlex Casual</text><text x="150" y="276" font-family="Helvetica, Arial, sans-serif" font-size="13" font-weight="600" fill="#2B2B2B" text-anchor="middle">Sneakers</text></svg>