<svg xmlns="http://www.w3.org/2000/svg" viewBox="0 0 300 300" width="100%" height="100%" preserveAspectRatio="xMidYMid meet">
  <defs>
    <linearGradient id="bg-grad-computers" x1="0%" y1="0%" x2="100%" y2="100%">
      <stop offset="0%" stop-color="#F0F5FF"/>
      <stop offset="100%" stop-color="#FFFFFF"/>
    </linearGradient>
    <filter id="shadow" x="-10%" y="-10%" width="120%" height="120%">
      <feDropShadow dx="0" dy="4" stdDeviation="6" flood-opacity="0.08"/>
    </filter>
  </defs>
  <rect width="300" height="300" rx="20" fill="url(#bg-grad-computers)"/>
  <g filter="url(#shadow)">
    
        <!-- Monitor & Desk Graphics -->
        <rect x="80" y="55" width="140" height="90" rx="8" fill="#6366F1" stroke="#4338CA" stroke-width="4"/>
        <rect x="88" y="63" width="124" height="74" rx="4" fill="#FFFFFF"/>
        <path d="M135 145 L165 145 L170 170 L130 170 Z" fill="#4338CA"/>
        <rect x="115" y="170" width="70" height="8" rx="4" fill="#6366F1"/>
        <!-- Code Window UI -->
        <rect x="96" y="73" width="108" height="12" rx="3" fill="#F0F5FF"/>
        <circle cx="104" cy="79" r="2.5" fill="#EF4444"/>
        <circle cx="111" cy="79" r="2.5" fill="#F59E0B"/>
        <circle cx="118" cy="79" r="2.5" fill="#10B981"/>
        <rect x="96" y="92" width="60" height="6" rx="3" fill="#6366F1" opacity="0.5"/>
        <rect x="96" y="103" width="80" height="6" rx="3" fill="#4338CA" opacity="0.4"/>
        <rect x="96" y="114" width="45" height="6" rx="3" fill="#6366F1" opacity="0.6"/>
    
  </g>
  <g filter="url(#shadow)">
    <rect x="18" y="238" width="264" height="48" rx="24.0" fill="#FFFFFF" fill-opacity="0.95" stroke="#6366F1" stroke-opacity="0.2" stroke-width="1"/>
    <text x="150" y="259" font-family="system-ui, -apple-system, sans-serif" font-size="13" font-weight="700" fill="#1E293B" text-anchor="middle">TypeCraft Mechanical</text><text x="150" y="275" font-family="system-ui, -apple-system, sans-serif" font-size="13" font-weight="700" fill="#1E293B" text-anchor="middle">Keyboard</text>
  </g>
</svg>